<svg width="70" height="70" viewBox="0 0 70 70" fill="none" xmlns="http://www.w3.org/2000/svg">
<path d="M37.9167 58.1525C43.8005 57.4039 49.1784 54.4429 52.9574 49.8715C56.7364 45.3001 58.633 39.4612 58.2616 33.5416C57.8902 27.6221 55.2787 22.066 50.9579 18.0028C46.6371 13.9396 40.9312 11.6741 35 11.6667C29.0616 11.6623 23.3449 13.9223 19.0148 17.9862C14.6847 22.0501 12.067 27.6121 11.6951 33.5389C11.3233 39.4657 13.2252 45.3113 17.0134 49.8846C20.8016 54.4578 26.1909 57.4147 32.0834 58.1525V40.8334H26.25V35H32.0834V30.1759C32.0834 26.2763 32.4917 24.8617 33.25 23.4355C33.997 22.0243 35.1516 20.8708 36.5634 20.125C37.6775 19.5271 39.063 19.1684 41.4838 19.0138C42.4434 18.9525 43.6859 19.0284 45.2113 19.2471V24.7888H43.75C41.0755 24.7888 39.97 24.9142 39.3109 25.2671C38.9176 25.4694 38.5973 25.7896 38.395 26.183C38.045 26.8421 37.9167 27.4955 37.9167 30.173V35H45.2084L43.75 40.8334H37.9167V58.1525ZM35 64.1667C18.8913 64.1667 5.83337 51.1088 5.83337 35C5.83337 18.8913 18.8913 5.83337 35 5.83337C51.1088 5.83337 64.1667 18.8913 64.1667 35C64.1667 51.1088 51.1088 64.1667 35 64.1667Z" fill="#7A7A7A"/>
</svg>
