<svg width="606" height="938" viewBox="0 0 606 938" fill="none" xmlns="http://www.w3.org/2000/svg">
<g opacity="0.25">
<path d="M594 237C594 259.091 576.091 277 554 277C531.909 277 514 259.091 514 237C514 214.909 531.909 197 554 197C576.091 197 594 214.909 594 237Z" fill="#383435"/>
<path d="M594 237C594 259.091 576.091 277 554 277C531.909 277 514 259.091 514 237C514 214.909 531.909 197 554 197C576.091 197 594 214.909 594 237Z" fill="url(#paint0_radial)"/>
<path d="M594 237C594 259.091 576.091 277 554 277C531.909 277 514 259.091 514 237C514 214.909 531.909 197 554 197C576.091 197 594 214.909 594 237Z" fill="url(#paint1_linear)"/>
<path d="M571.083 256.845C575.286 256.203 579.127 253.665 581.827 249.747C584.526 245.829 585.881 240.824 585.615 235.75C585.35 230.676 583.485 225.914 580.398 222.431C577.312 218.948 573.237 217.006 569 217C564.758 216.996 560.675 218.933 557.582 222.417C554.489 225.9 552.619 230.667 552.354 235.748C552.088 240.828 553.447 245.838 556.152 249.758C558.858 253.678 562.708 256.213 566.917 256.845V242H562.75V237H566.917V232.865C566.917 229.523 567.208 228.31 567.75 227.088C568.284 225.878 569.108 224.889 570.117 224.25C570.913 223.738 571.902 223.43 573.631 223.298C574.317 223.245 575.204 223.31 576.294 223.498V228.248H575.25C573.34 228.248 572.55 228.355 572.079 228.658C571.798 228.831 571.569 229.105 571.425 229.443C571.175 230.008 571.083 230.568 571.083 232.863V237H576.292L575.25 242H571.083V256.845ZM569 262C557.494 262 548.167 250.808 548.167 237C548.167 223.193 557.494 212 569 212C580.506 212 589.833 223.193 589.833 237C589.833 250.808 580.506 262 569 262Z" fill="#383435"/>
<path d="M571.083 256.845C575.286 256.203 579.127 253.665 581.827 249.747C584.526 245.829 585.881 240.824 585.615 235.75C585.35 230.676 583.485 225.914 580.398 222.431C577.312 218.948 573.237 217.006 569 217C564.758 216.996 560.675 218.933 557.582 222.417C554.489 225.9 552.619 230.667 552.354 235.748C552.088 240.828 553.447 245.838 556.152 249.758C558.858 253.678 562.708 256.213 566.917 256.845V242H562.75V237H566.917V232.865C566.917 229.523 567.208 228.31 567.75 227.088C568.284 225.878 569.108 224.889 570.117 224.25C570.913 223.738 571.902 223.43 573.631 223.298C574.317 223.245 575.204 223.31 576.294 223.498V228.248H575.25C573.34 228.248 572.55 228.355 572.079 228.658C571.798 228.831 571.569 229.105 571.425 229.443C571.175 230.008 571.083 230.568 571.083 232.863V237H576.292L575.25 242H571.083V256.845ZM569 262C557.494 262 548.167 250.808 548.167 237C548.167 223.193 557.494 212 569 212C580.506 212 589.833 223.193 589.833 237C589.833 250.808 580.506 262 569 262Z" fill="url(#paint2_radial)"/>
<path d="M571.083 256.845C575.286 256.203 579.127 253.665 581.827 249.747C584.526 245.829 585.881 240.824 585.615 235.75C585.35 230.676 583.485 225.914 580.398 222.431C577.312 218.948 573.237 217.006 569 217C564.758 216.996 560.675 218.933 557.582 222.417C554.489 225.9 552.619 230.667 552.354 235.748C552.088 240.828 553.447 245.838 556.152 249.758C558.858 253.678 562.708 256.213 566.917 256.845V242H562.75V237H566.917V232.865C566.917 229.523 567.208 228.31 567.75 227.088C568.284 225.878 569.108 224.889 570.117 224.25C570.913 223.738 571.902 223.43 573.631 223.298C574.317 223.245 575.204 223.31 576.294 223.498V228.248H575.25C573.34 228.248 572.55 228.355 572.079 228.658C571.798 228.831 571.569 229.105 571.425 229.443C571.175 230.008 571.083 230.568 571.083 232.863V237H576.292L575.25 242H571.083V256.845ZM569 262C557.494 262 548.167 250.808 548.167 237C548.167 223.193 557.494 212 569 212C580.506 212 589.833 223.193 589.833 237C589.833 250.808 580.506 262 569 262Z" fill="url(#paint3_linear)"/>
<path d="M156 455C156 482.614 133.614 505 106 505C78.3858 505 56 482.614 56 455C56 427.386 78.3858 405 106 405C133.614 405 156 427.386 156 455Z" fill="#383435"/>
<path d="M156 455C156 482.614 133.614 505 106 505C78.3858 505 56 482.614 56 455C56 427.386 78.3858 405 106 405C133.614 405 156 427.386 156 455Z" fill="url(#paint4_radial)"/>
<path d="M156 455C156 482.614 133.614 505 106 505C78.3858 505 56 482.614 56 455C56 427.386 78.3858 405 106 405C133.614 405 156 427.386 156 455Z" fill="url(#paint5_linear)"/>
<path d="M127.025 433.71C125.102 434.142 123.435 435.351 122.382 437.075C121.329 438.8 120.974 440.902 121.394 442.929L122.266 447.132C122.313 447.357 122.313 447.59 122.268 447.814C122.223 448.038 122.132 448.248 122.003 448.431C121.873 448.614 121.708 448.765 121.517 448.875C121.326 448.985 121.114 449.051 120.895 449.069L116.82 449.395C111.457 449.821 105.912 448.428 100.194 445.323C100.664 454.462 104.991 459.891 113.166 462.99L118.243 464.913C118.484 465.004 118.701 465.155 118.876 465.353C119.05 465.551 119.177 465.79 119.244 466.049C119.311 466.307 119.317 466.577 119.261 466.836C119.205 467.095 119.089 467.334 118.923 467.533L115.593 471.531C118.023 471.148 120.272 470.524 122.071 469.706C133.441 464.513 139.25 453.29 135.744 437.725C135.458 436.454 131.902 432.611 127.025 433.71ZM116.313 443.971C115.78 441.399 115.981 438.735 116.891 436.314C117.802 433.893 119.38 431.822 121.43 430.36C123.48 428.898 125.909 428.11 128.415 428.095C130.92 428.08 133.389 428.838 135.514 430.275C137.309 429.857 138.948 429.99 141.879 427.04C142.014 431.59 142.023 433.576 140.803 436.585C145.379 456.897 135.723 469.451 124.237 474.695C116.361 478.29 103.699 478.151 99.4023 475.148C101.125 474.609 108.077 472.196 111.486 468.097C107.453 466.466 91.6348 461.009 95.5589 435.872C101.025 440.162 106.174 442.761 111.003 443.667C114.217 444.27 114.929 444.081 116.316 443.973L116.313 443.971Z" fill="#383435"/>
<path d="M127.025 433.71C125.102 434.142 123.435 435.351 122.382 437.075C121.329 438.8 120.974 440.902 121.394 442.929L122.266 447.132C122.313 447.357 122.313 447.59 122.268 447.814C122.223 448.038 122.132 448.248 122.003 448.431C121.873 448.614 121.708 448.765 121.517 448.875C121.326 448.985 121.114 449.051 120.895 449.069L116.82 449.395C111.457 449.821 105.912 448.428 100.194 445.323C100.664 454.462 104.991 459.891 113.166 462.99L118.243 464.913C118.484 465.004 118.701 465.155 118.876 465.353C119.05 465.551 119.177 465.79 119.244 466.049C119.311 466.307 119.317 466.577 119.261 466.836C119.205 467.095 119.089 467.334 118.923 467.533L115.593 471.531C118.023 471.148 120.272 470.524 122.071 469.706C133.441 464.513 139.25 453.29 135.744 437.725C135.458 436.454 131.902 432.611 127.025 433.71ZM116.313 443.971C115.78 441.399 115.981 438.735 116.891 436.314C117.802 433.893 119.38 431.822 121.43 430.36C123.48 428.898 125.909 428.11 128.415 428.095C130.92 428.08 133.389 428.838 135.514 430.275C137.309 429.857 138.948 429.99 141.879 427.04C142.014 431.59 142.023 433.576 140.803 436.585C145.379 456.897 135.723 469.451 124.237 474.695C116.361 478.29 103.699 478.151 99.4023 475.148C101.125 474.609 108.077 472.196 111.486 468.097C107.453 466.466 91.6348 461.009 95.5589 435.872C101.025 440.162 106.174 442.761 111.003 443.667C114.217 444.27 114.929 444.081 116.316 443.973L116.313 443.971Z" fill="url(#paint6_radial)"/>
<path d="M127.025 433.71C125.102 434.142 123.435 435.351 122.382 437.075C121.329 438.8 120.974 440.902 121.394 442.929L122.266 447.132C122.313 447.357 122.313 447.59 122.268 447.814C122.223 448.038 122.132 448.248 122.003 448.431C121.873 448.614 121.708 448.765 121.517 448.875C121.326 448.985 121.114 449.051 120.895 449.069L116.82 449.395C111.457 449.821 105.912 448.428 100.194 445.323C100.664 454.462 104.991 459.891 113.166 462.99L118.243 464.913C118.484 465.004 118.701 465.155 118.876 465.353C119.05 465.551 119.177 465.79 119.244 466.049C119.311 466.307 119.317 466.577 119.261 466.836C119.205 467.095 119.089 467.334 118.923 467.533L115.593 471.531C118.023 471.148 120.272 470.524 122.071 469.706C133.441 464.513 139.25 453.29 135.744 437.725C135.458 436.454 131.902 432.611 127.025 433.71ZM116.313 443.971C115.78 441.399 115.981 438.735 116.891 436.314C117.802 433.893 119.38 431.822 121.43 430.36C123.48 428.898 125.909 428.11 128.415 428.095C130.92 428.08 133.389 428.838 135.514 430.275C137.309 429.857 138.948 429.99 141.879 427.04C142.014 431.59 142.023 433.576 140.803 436.585C145.379 456.897 135.723 469.451 124.237 474.695C116.361 478.29 103.699 478.151 99.4023 475.148C101.125 474.609 108.077 472.196 111.486 468.097C107.453 466.466 91.6348 461.009 95.5589 435.872C101.025 440.162 106.174 442.761 111.003 443.667C114.217 444.27 114.929 444.081 116.316 443.973L116.313 443.971Z" fill="url(#paint7_linear)"/>
<path d="M354.391 848C354.391 889.421 320.813 923 279.391 923C237.97 923 204.391 889.421 204.391 848C204.391 806.579 237.97 773 279.391 773C320.813 773 354.391 806.579 354.391 848Z" fill="#383435"/>
<path d="M354.391 848C354.391 889.421 320.813 923 279.391 923C237.97 923 204.391 889.421 204.391 848C204.391 806.579 237.97 773 279.391 773C320.813 773 354.391 806.579 354.391 848Z" fill="url(#paint8_radial)"/>
<path d="M354.391 848C354.391 889.421 320.813 923 279.391 923C237.97 923 204.391 889.421 204.391 848C204.391 806.579 237.97 773 279.391 773C320.813 773 354.391 806.579 354.391 848Z" fill="url(#paint9_linear)"/>
<path d="M273.939 861.799C272.41 861.251 270.843 860.889 269.269 860.719C271.406 854.319 271.289 847.113 268.937 840.332C268.77 839.84 268.515 839.377 268.187 838.972C267.858 838.567 267.463 838.226 267.024 837.971C266.584 837.715 266.11 837.55 265.627 837.484C265.144 837.417 264.663 837.452 264.212 837.585C263.76 837.718 263.347 837.947 262.996 838.259C262.645 838.572 262.363 838.96 262.167 839.403C261.971 839.846 261.864 840.334 261.853 840.84C261.841 841.345 261.926 841.858 262.101 842.348C263.205 845.519 263.66 848.839 263.434 852.076C263.209 855.314 262.308 858.391 260.795 861.093L253.358 848.573C253.191 848.334 252.999 848.114 252.788 847.917C252.65 847.732 252.499 847.559 252.335 847.399C252.021 847.165 251.679 846.98 251.321 846.85C251.226 846.814 251.142 846.735 251.044 846.702C250.684 846.604 250.318 846.562 249.957 846.578C249.85 846.578 249.745 846.534 249.641 846.545C249.356 846.596 249.082 846.683 248.823 846.805C248.643 846.846 248.467 846.902 248.298 846.975L246.302 848.151L246.293 848.156C245.576 848.574 245.048 849.261 244.801 850.096C244.554 850.931 244.604 851.861 244.943 852.721C245.282 853.581 245.887 854.317 246.652 854.799C247.418 855.28 248.294 855.477 249.127 855.354L259.012 871.996C250.861 869.264 243.449 864.062 237.75 857.075C237.086 856.265 236.169 855.736 235.2 855.604C234.232 855.473 233.29 855.749 232.583 856.373C231.877 856.997 231.462 857.917 231.432 858.93C231.401 859.944 231.757 860.968 232.42 861.778C241.24 872.574 253.437 879.641 266.337 881.429C266.511 881.438 266.685 881.433 266.856 881.415C267.003 881.422 267.149 881.418 267.294 881.404C267.723 881.354 268.133 881.222 268.503 881.013C268.948 880.74 269.319 880.359 269.588 879.898C269.609 879.863 269.648 879.854 269.668 879.819C269.844 879.501 269.97 879.153 270.043 878.786C270.061 878.711 270.056 878.64 270.068 878.564C270.122 878.206 270.124 877.837 270.076 877.468C270.061 877.346 270.04 877.225 270.013 877.105C269.924 876.65 269.759 876.209 269.527 875.801L265.229 868.565C267.485 868.062 269.888 868.234 272.182 869.063L280.829 872.199C281.77 872.54 282.765 872.485 283.595 872.044C284.425 871.604 285.022 870.815 285.255 869.851C285.488 868.888 285.337 867.828 284.836 866.906C284.336 865.983 283.526 865.273 282.585 864.932L273.939 861.799Z" fill="#383435"/>
<path d="M273.939 861.799C272.41 861.251 270.843 860.889 269.269 860.719C271.406 854.319 271.289 847.113 268.937 840.332C268.77 839.84 268.515 839.377 268.187 838.972C267.858 838.567 267.463 838.226 267.024 837.971C266.584 837.715 266.11 837.55 265.627 837.484C265.144 837.417 264.663 837.452 264.212 837.585C263.76 837.718 263.347 837.947 262.996 838.259C262.645 838.572 262.363 838.96 262.167 839.403C261.971 839.846 261.864 840.334 261.853 840.84C261.841 841.345 261.926 841.858 262.101 842.348C263.205 845.519 263.66 848.839 263.434 852.076C263.209 855.314 262.308 858.391 260.795 861.093L253.358 848.573C253.191 848.334 252.999 848.114 252.788 847.917C252.65 847.732 252.499 847.559 252.335 847.399C252.021 847.165 251.679 846.98 251.321 846.85C251.226 846.814 251.142 846.735 251.044 846.702C250.684 846.604 250.318 846.562 249.957 846.578C249.85 846.578 249.745 846.534 249.641 846.545C249.356 846.596 249.082 846.683 248.823 846.805C248.643 846.846 248.467 846.902 248.298 846.975L246.302 848.151L246.293 848.156C245.576 848.574 245.048 849.261 244.801 850.096C244.554 850.931 244.604 851.861 244.943 852.721C245.282 853.581 245.887 854.317 246.652 854.799C247.418 855.28 248.294 855.477 249.127 855.354L259.012 871.996C250.861 869.264 243.449 864.062 237.75 857.075C237.086 856.265 236.169 855.736 235.2 855.604C234.232 855.473 233.29 855.749 232.583 856.373C231.877 856.997 231.462 857.917 231.432 858.93C231.401 859.944 231.757 860.968 232.42 861.778C241.24 872.574 253.437 879.641 266.337 881.429C266.511 881.438 266.685 881.433 266.856 881.415C267.003 881.422 267.149 881.418 267.294 881.404C267.723 881.354 268.133 881.222 268.503 881.013C268.948 880.74 269.319 880.359 269.588 879.898C269.609 879.863 269.648 879.854 269.668 879.819C269.844 879.501 269.97 879.153 270.043 878.786C270.061 878.711 270.056 878.64 270.068 878.564C270.122 878.206 270.124 877.837 270.076 877.468C270.061 877.346 270.04 877.225 270.013 877.105C269.924 876.65 269.759 876.209 269.527 875.801L265.229 868.565C267.485 868.062 269.888 868.234 272.182 869.063L280.829 872.199C281.77 872.54 282.765 872.485 283.595 872.044C284.425 871.604 285.022 870.815 285.255 869.851C285.488 868.888 285.337 867.828 284.836 866.906C284.336 865.983 283.526 865.273 282.585 864.932L273.939 861.799Z" fill="url(#paint10_radial)"/>
<path d="M273.939 861.799C272.41 861.251 270.843 860.889 269.269 860.719C271.406 854.319 271.289 847.113 268.937 840.332C268.77 839.84 268.515 839.377 268.187 838.972C267.858 838.567 267.463 838.226 267.024 837.971C266.584 837.715 266.11 837.55 265.627 837.484C265.144 837.417 264.663 837.452 264.212 837.585C263.76 837.718 263.347 837.947 262.996 838.259C262.645 838.572 262.363 838.96 262.167 839.403C261.971 839.846 261.864 840.334 261.853 840.84C261.841 841.345 261.926 841.858 262.101 842.348C263.205 845.519 263.66 848.839 263.434 852.076C263.209 855.314 262.308 858.391 260.795 861.093L253.358 848.573C253.191 848.334 252.999 848.114 252.788 847.917C252.65 847.732 252.499 847.559 252.335 847.399C252.021 847.165 251.679 846.98 251.321 846.85C251.226 846.814 251.142 846.735 251.044 846.702C250.684 846.604 250.318 846.562 249.957 846.578C249.85 846.578 249.745 846.534 249.641 846.545C249.356 846.596 249.082 846.683 248.823 846.805C248.643 846.846 248.467 846.902 248.298 846.975L246.302 848.151L246.293 848.156C245.576 848.574 245.048 849.261 244.801 850.096C244.554 850.931 244.604 851.861 244.943 852.721C245.282 853.581 245.887 854.317 246.652 854.799C247.418 855.28 248.294 855.477 249.127 855.354L259.012 871.996C250.861 869.264 243.449 864.062 237.75 857.075C237.086 856.265 236.169 855.736 235.2 855.604C234.232 855.473 233.29 855.749 232.583 856.373C231.877 856.997 231.462 857.917 231.432 858.93C231.401 859.944 231.757 860.968 232.42 861.778C241.24 872.574 253.437 879.641 266.337 881.429C266.511 881.438 266.685 881.433 266.856 881.415C267.003 881.422 267.149 881.418 267.294 881.404C267.723 881.354 268.133 881.222 268.503 881.013C268.948 880.74 269.319 880.359 269.588 879.898C269.609 879.863 269.648 879.854 269.668 879.819C269.844 879.501 269.97 879.153 270.043 878.786C270.061 878.711 270.056 878.64 270.068 878.564C270.122 878.206 270.124 877.837 270.076 877.468C270.061 877.346 270.04 877.225 270.013 877.105C269.924 876.65 269.759 876.209 269.527 875.801L265.229 868.565C267.485 868.062 269.888 868.234 272.182 869.063L280.829 872.199C281.77 872.54 282.765 872.485 283.595 872.044C284.425 871.604 285.022 870.815 285.255 869.851C285.488 868.888 285.337 867.828 284.836 866.906C284.336 865.983 283.526 865.273 282.585 864.932L273.939 861.799Z" fill="url(#paint11_linear)"/>
<path d="M274.259 889.117C280.719 885.28 285.212 878.731 286.747 870.912C288.283 863.092 286.736 854.643 282.447 847.422C278.158 840.201 271.478 834.801 263.877 832.408C256.276 830.016 248.376 830.828 241.916 834.665C235.455 838.503 230.963 845.052 229.427 852.871C227.891 860.691 229.438 869.14 233.727 876.361C238.016 883.582 244.696 888.982 252.297 891.375C259.898 893.767 267.798 892.955 274.259 889.117ZM278.302 895.924C261.484 905.913 238.801 898.774 227.637 879.978C216.472 861.182 221.055 837.848 237.873 827.859C254.69 817.87 277.373 825.009 288.537 843.805C299.702 862.601 295.119 885.935 278.302 895.924Z" fill="#383435"/>
<path d="M274.259 889.117C280.719 885.28 285.212 878.731 286.747 870.912C288.283 863.092 286.736 854.643 282.447 847.422C278.158 840.201 271.478 834.801 263.877 832.408C256.276 830.016 248.376 830.828 241.916 834.665C235.455 838.503 230.963 845.052 229.427 852.871C227.891 860.691 229.438 869.14 233.727 876.361C238.016 883.582 244.696 888.982 252.297 891.375C259.898 893.767 267.798 892.955 274.259 889.117ZM278.302 895.924C261.484 905.913 238.801 898.774 227.637 879.978C216.472 861.182 221.055 837.848 237.873 827.859C254.69 817.87 277.373 825.009 288.537 843.805C299.702 862.601 295.119 885.935 278.302 895.924Z" fill="url(#paint12_radial)"/>
<path d="M274.259 889.117C280.719 885.28 285.212 878.731 286.747 870.912C288.283 863.092 286.736 854.643 282.447 847.422C278.158 840.201 271.478 834.801 263.877 832.408C256.276 830.016 248.376 830.828 241.916 834.665C235.455 838.503 230.963 845.052 229.427 852.871C227.891 860.691 229.438 869.14 233.727 876.361C238.016 883.582 244.696 888.982 252.297 891.375C259.898 893.767 267.798 892.955 274.259 889.117ZM278.302 895.924C261.484 905.913 238.801 898.774 227.637 879.978C216.472 861.182 221.055 837.848 237.873 827.859C254.69 817.87 277.373 825.009 288.537 843.805C299.702 862.601 295.119 885.935 278.302 895.924Z" fill="url(#paint13_linear)"/>
<path d="M567 869C567 891.091 549.091 909 527 909C504.909 909 487 891.091 487 869C487 846.909 504.909 829 527 829C549.091 829 567 846.909 567 869Z" fill="#383435"/>
<path d="M567 869C567 891.091 549.091 909 527 909C504.909 909 487 891.091 487 869C487 846.909 504.909 829 527 829C549.091 829 567 846.909 567 869Z" fill="url(#paint14_radial)"/>
<path d="M567 869C567 891.091 549.091 909 527 909C504.909 909 487 891.091 487 869C487 846.909 504.909 829 527 829C549.091 829 567 846.909 567 869Z" fill="url(#paint15_linear)"/>
<path d="M518.5 890.887C523.362 890.887 528.025 888.7 531.464 884.808C534.902 880.916 536.833 875.637 536.833 870.132C536.833 864.628 534.902 859.349 531.464 855.456C528.025 851.564 523.362 849.377 518.5 849.377C513.638 849.377 508.975 851.564 505.536 855.456C502.098 859.349 500.167 864.628 500.167 870.132C500.167 875.637 502.098 880.916 505.536 884.808C508.975 888.7 513.638 890.887 518.5 890.887ZM518.5 896.076C505.843 896.076 495.583 884.461 495.583 870.132C495.583 855.804 505.843 844.189 518.5 844.189C531.157 844.189 541.417 855.804 541.417 870.132C541.417 884.461 531.157 896.076 518.5 896.076ZM511.373 873.167L505.648 871.146C504.411 870.718 504.404 869.753 505.926 869.061L528.23 859.306C529.525 858.709 530.259 859.464 529.839 861.355L526.042 881.643C525.776 883.088 525.008 883.433 523.943 882.767L518.097 877.868L515.372 880.847C515.092 881.153 514.865 881.415 514.435 881.48C514.006 881.547 513.653 881.402 513.394 880.598L511.4 873.149L511.373 873.17V873.167Z" fill="#383435"/>
<path d="M518.5 890.887C523.362 890.887 528.025 888.7 531.464 884.808C534.902 880.916 536.833 875.637 536.833 870.132C536.833 864.628 534.902 859.349 531.464 855.456C528.025 851.564 523.362 849.377 518.5 849.377C513.638 849.377 508.975 851.564 505.536 855.456C502.098 859.349 500.167 864.628 500.167 870.132C500.167 875.637 502.098 880.916 505.536 884.808C508.975 888.7 513.638 890.887 518.5 890.887ZM518.5 896.076C505.843 896.076 495.583 884.461 495.583 870.132C495.583 855.804 505.843 844.189 518.5 844.189C531.157 844.189 541.417 855.804 541.417 870.132C541.417 884.461 531.157 896.076 518.5 896.076ZM511.373 873.167L505.648 871.146C504.411 870.718 504.404 869.753 505.926 869.061L528.23 859.306C529.525 858.709 530.259 859.464 529.839 861.355L526.042 881.643C525.776 883.088 525.008 883.433 523.943 882.767L518.097 877.868L515.372 880.847C515.092 881.153 514.865 881.415 514.435 881.48C514.006 881.547 513.653 881.402 513.394 880.598L511.4 873.149L511.373 873.17V873.167Z" fill="url(#paint16_radial)"/>
<path d="M518.5 890.887C523.362 890.887 528.025 888.7 531.464 884.808C534.902 880.916 536.833 875.637 536.833 870.132C536.833 864.628 534.902 859.349 531.464 855.456C528.025 851.564 523.362 849.377 518.5 849.377C513.638 849.377 508.975 851.564 505.536 855.456C502.098 859.349 500.167 864.628 500.167 870.132C500.167 875.637 502.098 880.916 505.536 884.808C508.975 888.7 513.638 890.887 518.5 890.887ZM518.5 896.076C505.843 896.076 495.583 884.461 495.583 870.132C495.583 855.804 505.843 844.189 518.5 844.189C531.157 844.189 541.417 855.804 541.417 870.132C541.417 884.461 531.157 896.076 518.5 896.076ZM511.373 873.167L505.648 871.146C504.411 870.718 504.404 869.753 505.926 869.061L528.23 859.306C529.525 858.709 530.259 859.464 529.839 861.355L526.042 881.643C525.776 883.088 525.008 883.433 523.943 882.767L518.097 877.868L515.372 880.847C515.092 881.153 514.865 881.415 514.435 881.48C514.006 881.547 513.653 881.402 513.394 880.598L511.4 873.149L511.373 873.17V873.167Z" fill="url(#paint17_linear)"/>
<path d="M138 888C138 915.614 115.614 938 88 938C60.3858 938 38 915.614 38 888C38 860.386 60.3858 838 88 838C115.614 838 138 860.386 138 888Z" fill="#383435"/>
<path d="M138 888C138 915.614 115.614 938 88 938C60.3858 938 38 915.614 38 888C38 860.386 60.3858 838 88 838C115.614 838 138 860.386 138 888Z" fill="url(#paint18_radial)"/>
<path d="M138 888C138 915.614 115.614 938 88 938C60.3858 938 38 915.614 38 888C38 860.386 60.3858 838 88 838C115.614 838 138 860.386 138 888Z" fill="url(#paint19_linear)"/>
<path d="M92.785 874.375C92.3841 874.456 91.9806 874.529 91.575 874.592C89.3735 874.937 87.1133 874.93 84.915 874.571C84.53 874.508 83.985 874.398 83.2825 874.242L80.98 876.735C75.2975 876.583 73.1375 873.41 73.1375 873.41C73.1375 866.367 77.84 860.656 77.84 860.656C81.5425 858.296 85.065 858.36 85.065 858.36L86.0725 859.454C86.1654 859.443 86.2588 859.436 86.3525 859.433C88.273 859.221 88.2193 859.228 90.1375 859.454L91.2425 858.36C91.2425 858.36 94.7675 858.296 98.4675 860.658C98.4675 860.658 103.173 866.367 103.173 873.41C103.173 873.41 100.985 876.581 95.3025 876.735L92.785 874.373V874.375ZM83.19 866.917C81.6875 866.917 80.5 867.854 80.5 869C80.5 870.146 81.7125 871.083 83.19 871.083C84.69 871.083 85.8775 870.146 85.8775 869C85.9025 867.854 84.6925 866.917 83.19 866.917ZM92.81 866.917C91.31 866.917 90.1225 867.854 90.1225 869C90.1225 870.146 91.335 871.083 92.81 871.083C94.3125 871.083 95.5 870.146 95.5 869C95.5 867.854 94.3125 866.917 92.81 866.917ZM110.5 891.917L98.025 881.5H105.5L103.5 852.333H72.5L70.5 881.5H98.0075L99.4325 885.667H70.5C69.1739 885.667 67.9021 885.228 66.9645 884.446C66.0268 883.665 65.5 882.605 65.5 881.5L67.5 852.333C67.5 851.228 68.0268 850.168 68.9645 849.387C69.9021 848.606 71.1739 848.167 72.5 848.167H103.5C104.826 848.167 106.098 848.606 107.036 849.387C107.973 850.168 108.5 851.228 108.5 852.333L110.5 891.917Z" fill="#383435"/>
<path d="M92.785 874.375C92.3841 874.456 91.9806 874.529 91.575 874.592C89.3735 874.937 87.1133 874.93 84.915 874.571C84.53 874.508 83.985 874.398 83.2825 874.242L80.98 876.735C75.2975 876.583 73.1375 873.41 73.1375 873.41C73.1375 866.367 77.84 860.656 77.84 860.656C81.5425 858.296 85.065 858.36 85.065 858.36L86.0725 859.454C86.1654 859.443 86.2588 859.436 86.3525 859.433C88.273 859.221 88.2193 859.228 90.1375 859.454L91.2425 858.36C91.2425 858.36 94.7675 858.296 98.4675 860.658C98.4675 860.658 103.173 866.367 103.173 873.41C103.173 873.41 100.985 876.581 95.3025 876.735L92.785 874.373V874.375ZM83.19 866.917C81.6875 866.917 80.5 867.854 80.5 869C80.5 870.146 81.7125 871.083 83.19 871.083C84.69 871.083 85.8775 870.146 85.8775 869C85.9025 867.854 84.6925 866.917 83.19 866.917ZM92.81 866.917C91.31 866.917 90.1225 867.854 90.1225 869C90.1225 870.146 91.335 871.083 92.81 871.083C94.3125 871.083 95.5 870.146 95.5 869C95.5 867.854 94.3125 866.917 92.81 866.917ZM110.5 891.917L98.025 881.5H105.5L103.5 852.333H72.5L70.5 881.5H98.0075L99.4325 885.667H70.5C69.1739 885.667 67.9021 885.228 66.9645 884.446C66.0268 883.665 65.5 882.605 65.5 881.5L67.5 852.333C67.5 851.228 68.0268 850.168 68.9645 849.387C69.9021 848.606 71.1739 848.167 72.5 848.167H103.5C104.826 848.167 106.098 848.606 107.036 849.387C107.973 850.168 108.5 851.228 108.5 852.333L110.5 891.917Z" fill="url(#paint20_radial)"/>
<path d="M92.785 874.375C92.3841 874.456 91.9806 874.529 91.575 874.592C89.3735 874.937 87.1133 874.93 84.915 874.571C84.53 874.508 83.985 874.398 83.2825 874.242L80.98 876.735C75.2975 876.583 73.1375 873.41 73.1375 873.41C73.1375 866.367 77.84 860.656 77.84 860.656C81.5425 858.296 85.065 858.36 85.065 858.36L86.0725 859.454C86.1654 859.443 86.2588 859.436 86.3525 859.433C88.273 859.221 88.2193 859.228 90.1375 859.454L91.2425 858.36C91.2425 858.36 94.7675 858.296 98.4675 860.658C98.4675 860.658 103.173 866.367 103.173 873.41C103.173 873.41 100.985 876.581 95.3025 876.735L92.785 874.373V874.375ZM83.19 866.917C81.6875 866.917 80.5 867.854 80.5 869C80.5 870.146 81.7125 871.083 83.19 871.083C84.69 871.083 85.8775 870.146 85.8775 869C85.9025 867.854 84.6925 866.917 83.19 866.917ZM92.81 866.917C91.31 866.917 90.1225 867.854 90.1225 869C90.1225 870.146 91.335 871.083 92.81 871.083C94.3125 871.083 95.5 870.146 95.5 869C95.5 867.854 94.3125 866.917 92.81 866.917ZM110.5 891.917L98.025 881.5H105.5L103.5 852.333H72.5L70.5 881.5H98.0075L99.4325 885.667H70.5C69.1739 885.667 67.9021 885.228 66.9645 884.446C66.0268 883.665 65.5 882.605 65.5 881.5L67.5 852.333C67.5 851.228 68.0268 850.168 68.9645 849.387C69.9021 848.606 71.1739 848.167 72.5 848.167H103.5C104.826 848.167 106.098 848.606 107.036 849.387C107.973 850.168 108.5 851.228 108.5 852.333L110.5 891.917Z" fill="url(#paint21_linear)"/>
<path d="M150 214C150 255.421 116.421 289 75 289C33.5786 289 0 255.421 0 214C0 172.579 33.5786 139 75 139C116.421 139 150 172.579 150 214Z" fill="#383435"/>
<path d="M150 214C150 255.421 116.421 289 75 289C33.5786 289 0 255.421 0 214C0 172.579 33.5786 139 75 139C116.421 139 150 172.579 150 214Z" fill="url(#paint22_radial)"/>
<path d="M150 214C150 255.421 116.421 289 75 289C33.5786 289 0 255.421 0 214C0 172.579 33.5786 139 75 139C116.421 139 150 172.579 150 214Z" fill="url(#paint23_linear)"/>
<path d="M85.2963 225.205L87.8605 226.88C92.1847 229.698 97.1028 231.178 102.109 231.167C107.712 231.167 113.19 229.309 117.85 225.83C122.509 222.35 126.141 217.405 128.285 211.618C130.43 205.832 130.991 199.465 129.898 193.322C128.804 187.179 126.106 181.537 122.143 177.108C118.181 172.68 113.132 169.664 107.636 168.442C102.14 167.22 96.4432 167.847 91.2659 170.244C86.0887 172.641 81.6636 176.699 78.5503 181.907C75.437 187.114 73.7753 193.237 73.7753 199.5C73.765 205.097 75.0902 210.595 77.6145 215.428L79.109 218.294L76.7963 227.798L85.2963 225.205ZM66.7061 239.083L71.4945 219.418C68.3393 213.373 66.6817 206.498 66.692 199.5C66.692 177.638 82.548 159.917 102.109 159.917C121.669 159.917 137.525 177.638 137.525 199.5C137.525 221.362 121.669 239.083 102.109 239.083C95.8497 239.095 89.701 237.243 84.294 233.72L66.7061 239.083ZM89.3268 180.927C89.8013 180.888 90.2795 180.888 90.754 180.912C90.9453 180.927 91.1365 180.951 91.3278 180.975C91.8909 181.046 92.5107 181.43 92.7197 181.961C93.7751 184.636 94.8022 187.332 95.7938 190.036C96.0134 190.637 95.8824 191.409 95.4645 192.161C95.177 192.67 94.8661 193.161 94.533 193.634C94.1328 194.208 93.2722 195.261 93.2722 195.261C93.2722 195.261 92.9215 195.728 93.0561 196.31C93.1057 196.531 93.2686 196.852 93.4174 197.121L93.6263 197.497C94.533 199.187 95.7513 200.901 97.2388 202.516C97.6638 202.975 98.0782 203.446 98.5245 203.886C100.182 205.521 102.059 206.855 104.085 207.844L104.103 207.852C104.404 207.999 104.556 208.078 104.995 208.287C105.215 208.39 105.441 208.481 105.672 208.549C105.909 208.616 106.16 208.604 106.391 208.512C106.623 208.42 106.825 208.254 106.971 208.034C109.536 204.563 109.769 204.337 109.79 204.337V204.345C109.969 204.159 110.18 204.018 110.411 203.932C110.642 203.845 110.887 203.814 111.129 203.842C111.342 203.858 111.558 203.902 111.756 204.001C113.637 204.962 116.714 206.463 116.714 206.463L118.776 207.496C119.123 207.682 119.438 208.121 119.449 208.545C119.463 208.81 119.484 209.237 119.403 210.021C119.289 211.046 119.013 212.277 118.737 212.923C118.548 213.363 118.296 213.767 117.993 214.118C117.636 214.537 117.244 214.919 116.824 215.258C116.679 215.38 116.531 215.499 116.382 215.614C115.941 215.927 115.488 216.217 115.025 216.485C114.113 217.027 113.106 217.337 112.075 217.396C111.42 217.435 110.764 217.491 110.106 217.451C110.077 217.451 108.094 217.107 108.094 217.107C103.059 215.626 98.4019 212.853 94.494 209.008C93.6936 208.22 92.9534 207.373 92.1955 206.53C89.0434 203.027 86.6634 199.247 85.2184 195.676C84.4788 193.924 84.0793 192.016 84.0461 190.079C84.0315 187.676 84.7344 185.336 86.0436 183.429C86.3022 183.057 86.5465 182.669 86.968 182.222C87.4178 181.747 87.7011 181.494 88.0093 181.319C88.4189 181.09 88.8658 180.955 89.3232 180.924L89.3268 180.927Z" fill="#383435"/>
<path d="M85.2963 225.205L87.8605 226.88C92.1847 229.698 97.1028 231.178 102.109 231.167C107.712 231.167 113.19 229.309 117.85 225.83C122.509 222.35 126.141 217.405 128.285 211.618C130.43 205.832 130.991 199.465 129.898 193.322C128.804 187.179 126.106 181.537 122.143 177.108C118.181 172.68 113.132 169.664 107.636 168.442C102.14 167.22 96.4432 167.847 91.2659 170.244C86.0887 172.641 81.6636 176.699 78.5503 181.907C75.437 187.114 73.7753 193.237 73.7753 199.5C73.765 205.097 75.0902 210.595 77.6145 215.428L79.109 218.294L76.7963 227.798L85.2963 225.205ZM66.7061 239.083L71.4945 219.418C68.3393 213.373 66.6817 206.498 66.692 199.5C66.692 177.638 82.548 159.917 102.109 159.917C121.669 159.917 137.525 177.638 137.525 199.5C137.525 221.362 121.669 239.083 102.109 239.083C95.8497 239.095 89.701 237.243 84.294 233.72L66.7061 239.083ZM89.3268 180.927C89.8013 180.888 90.2795 180.888 90.754 180.912C90.9453 180.927 91.1365 180.951 91.3278 180.975C91.8909 181.046 92.5107 181.43 92.7197 181.961C93.7751 184.636 94.8022 187.332 95.7938 190.036C96.0134 190.637 95.8824 191.409 95.4645 192.161C95.177 192.67 94.8661 193.161 94.533 193.634C94.1328 194.208 93.2722 195.261 93.2722 195.261C93.2722 195.261 92.9215 195.728 93.0561 196.31C93.1057 196.531 93.2686 196.852 93.4174 197.121L93.6263 197.497C94.533 199.187 95.7513 200.901 97.2388 202.516C97.6638 202.975 98.0782 203.446 98.5245 203.886C100.182 205.521 102.059 206.855 104.085 207.844L104.103 207.852C104.404 207.999 104.556 208.078 104.995 208.287C105.215 208.39 105.441 208.481 105.672 208.549C105.909 208.616 106.16 208.604 106.391 208.512C106.623 208.42 106.825 208.254 106.971 208.034C109.536 204.563 109.769 204.337 109.79 204.337V204.345C109.969 204.159 110.18 204.018 110.411 203.932C110.642 203.845 110.887 203.814 111.129 203.842C111.342 203.858 111.558 203.902 111.756 204.001C113.637 204.962 116.714 206.463 116.714 206.463L118.776 207.496C119.123 207.682 119.438 208.121 119.449 208.545C119.463 208.81 119.484 209.237 119.403 210.021C119.289 211.046 119.013 212.277 118.737 212.923C118.548 213.363 118.296 213.767 117.993 214.118C117.636 214.537 117.244 214.919 116.824 215.258C116.679 215.38 116.531 215.499 116.382 215.614C115.941 215.927 115.488 216.217 115.025 216.485C114.113 217.027 113.106 217.337 112.075 217.396C111.42 217.435 110.764 217.491 110.106 217.451C110.077 217.451 108.094 217.107 108.094 217.107C103.059 215.626 98.4019 212.853 94.494 209.008C93.6936 208.22 92.9534 207.373 92.1955 206.53C89.0434 203.027 86.6634 199.247 85.2184 195.676C84.4788 193.924 84.0793 192.016 84.0461 190.079C84.0315 187.676 84.7344 185.336 86.0436 183.429C86.3022 183.057 86.5465 182.669 86.968 182.222C87.4178 181.747 87.7011 181.494 88.0093 181.319C88.4189 181.09 88.8658 180.955 89.3232 180.924L89.3268 180.927Z" fill="url(#paint24_radial)"/>
<path d="M85.2963 225.205L87.8605 226.88C92.1847 229.698 97.1028 231.178 102.109 231.167C107.712 231.167 113.19 229.309 117.85 225.83C122.509 222.35 126.141 217.405 128.285 211.618C130.43 205.832 130.991 199.465 129.898 193.322C128.804 187.179 126.106 181.537 122.143 177.108C118.181 172.68 113.132 169.664 107.636 168.442C102.14 167.22 96.4432 167.847 91.2659 170.244C86.0887 172.641 81.6636 176.699 78.5503 181.907C75.437 187.114 73.7753 193.237 73.7753 199.5C73.765 205.097 75.0902 210.595 77.6145 215.428L79.109 218.294L76.7963 227.798L85.2963 225.205ZM66.7061 239.083L71.4945 219.418C68.3393 213.373 66.6817 206.498 66.692 199.5C66.692 177.638 82.548 159.917 102.109 159.917C121.669 159.917 137.525 177.638 137.525 199.5C137.525 221.362 121.669 239.083 102.109 239.083C95.8497 239.095 89.701 237.243 84.294 233.72L66.7061 239.083ZM89.3268 180.927C89.8013 180.888 90.2795 180.888 90.754 180.912C90.9453 180.927 91.1365 180.951 91.3278 180.975C91.8909 181.046 92.5107 181.43 92.7197 181.961C93.7751 184.636 94.8022 187.332 95.7938 190.036C96.0134 190.637 95.8824 191.409 95.4645 192.161C95.177 192.67 94.8661 193.161 94.533 193.634C94.1328 194.208 93.2722 195.261 93.2722 195.261C93.2722 195.261 92.9215 195.728 93.0561 196.31C93.1057 196.531 93.2686 196.852 93.4174 197.121L93.6263 197.497C94.533 199.187 95.7513 200.901 97.2388 202.516C97.6638 202.975 98.0782 203.446 98.5245 203.886C100.182 205.521 102.059 206.855 104.085 207.844L104.103 207.852C104.404 207.999 104.556 208.078 104.995 208.287C105.215 208.39 105.441 208.481 105.672 208.549C105.909 208.616 106.16 208.604 106.391 208.512C106.623 208.42 106.825 208.254 106.971 208.034C109.536 204.563 109.769 204.337 109.79 204.337V204.345C109.969 204.159 110.18 204.018 110.411 203.932C110.642 203.845 110.887 203.814 111.129 203.842C111.342 203.858 111.558 203.902 111.756 204.001C113.637 204.962 116.714 206.463 116.714 206.463L118.776 207.496C119.123 207.682 119.438 208.121 119.449 208.545C119.463 208.81 119.484 209.237 119.403 210.021C119.289 211.046 119.013 212.277 118.737 212.923C118.548 213.363 118.296 213.767 117.993 214.118C117.636 214.537 117.244 214.919 116.824 215.258C116.679 215.38 116.531 215.499 116.382 215.614C115.941 215.927 115.488 216.217 115.025 216.485C114.113 217.027 113.106 217.337 112.075 217.396C111.42 217.435 110.764 217.491 110.106 217.451C110.077 217.451 108.094 217.107 108.094 217.107C103.059 215.626 98.4019 212.853 94.494 209.008C93.6936 208.22 92.9534 207.373 92.1955 206.53C89.0434 203.027 86.6634 199.247 85.2184 195.676C84.4788 193.924 84.0793 192.016 84.0461 190.079C84.0315 187.676 84.7344 185.336 86.0436 183.429C86.3022 183.057 86.5465 182.669 86.968 182.222C87.4178 181.747 87.7011 181.494 88.0093 181.319C88.4189 181.09 88.8658 180.955 89.3232 180.924L89.3268 180.927Z" fill="url(#paint25_linear)"/>
<path d="M509 71C509 87.5685 495.569 101 479 101C462.431 101 449 87.5685 449 71C449 54.4315 462.431 41 479 41C495.569 41 509 54.4315 509 71Z" fill="#383435"/>
<path d="M509 71C509 87.5685 495.569 101 479 101C462.431 101 449 87.5685 449 71C449 54.4315 462.431 41 479 41C495.569 41 509 54.4315 509 71Z" fill="url(#paint26_radial)"/>
<path d="M509 71C509 87.5685 495.569 101 479 101C462.431 101 449 87.5685 449 71C449 54.4315 462.431 41 479 41C495.569 41 509 54.4315 509 71Z" fill="url(#paint27_linear)"/>
<path d="M200 65C200 89.8528 179.853 110 155 110C130.147 110 110 89.8528 110 65C110 40.1472 130.147 20 155 20C179.853 20 200 40.1472 200 65Z" fill="#383435"/>
<path d="M200 65C200 89.8528 179.853 110 155 110C130.147 110 110 89.8528 110 65C110 40.1472 130.147 20 155 20C179.853 20 200 40.1472 200 65Z" fill="url(#paint28_radial)"/>
<path d="M200 65C200 89.8528 179.853 110 155 110C130.147 110 110 89.8528 110 65C110 40.1472 130.147 20 155 20C179.853 20 200 40.1472 200 65Z" fill="url(#paint29_linear)"/>
<path d="M606 55C606 85.3757 581.376 110 551 110C520.624 110 496 85.3757 496 55C496 24.6243 520.624 0 551 0C581.376 0 606 24.6243 606 55Z" fill="#383435"/>
<path d="M606 55C606 85.3757 581.376 110 551 110C520.624 110 496 85.3757 496 55C496 24.6243 520.624 0 551 0C581.376 0 606 24.6243 606 55Z" fill="url(#paint30_radial)"/>
<path d="M606 55C606 85.3757 581.376 110 551 110C520.624 110 496 85.3757 496 55C496 24.6243 520.624 0 551 0C581.376 0 606 24.6243 606 55Z" fill="url(#paint31_linear)"/>
<path d="M64 41C64 49.2843 57.2843 56 49 56C40.7157 56 34 49.2843 34 41C34 32.7157 40.7157 26 49 26C57.2843 26 64 32.7157 64 41Z" fill="#383435"/>
<path d="M64 41C64 49.2843 57.2843 56 49 56C40.7157 56 34 49.2843 34 41C34 32.7157 40.7157 26 49 26C57.2843 26 64 32.7157 64 41Z" fill="url(#paint32_radial)"/>
<path d="M64 41C64 49.2843 57.2843 56 49 56C40.7157 56 34 49.2843 34 41C34 32.7157 40.7157 26 49 26C57.2843 26 64 32.7157 64 41Z" fill="url(#paint33_linear)"/>
<path d="M381 882C381 893.046 372.046 902 361 902C349.954 902 341 893.046 341 882C341 870.954 349.954 862 361 862C372.046 862 381 870.954 381 882Z" fill="#383435"/>
<path d="M381 882C381 893.046 372.046 902 361 902C349.954 902 341 893.046 341 882C341 870.954 349.954 862 361 862C372.046 862 381 870.954 381 882Z" fill="url(#paint34_radial)"/>
<path d="M381 882C381 893.046 372.046 902 361 902C349.954 902 341 893.046 341 882C341 870.954 349.954 862 361 862C372.046 862 381 870.954 381 882Z" fill="url(#paint35_linear)"/>
<path d="M57 806C57 819.807 45.8071 831 32 831C18.1929 831 7 819.807 7 806C7 792.193 18.1929 781 32 781C45.8071 781 57 792.193 57 806Z" fill="#383435"/>
<path d="M57 806C57 819.807 45.8071 831 32 831C18.1929 831 7 819.807 7 806C7 792.193 18.1929 781 32 781C45.8071 781 57 792.193 57 806Z" fill="url(#paint36_radial)"/>
<path d="M57 806C57 819.807 45.8071 831 32 831C18.1929 831 7 819.807 7 806C7 792.193 18.1929 781 32 781C45.8071 781 57 792.193 57 806Z" fill="url(#paint37_linear)"/>
<path d="M474 788C474 810.091 456.091 828 434 828C411.909 828 394 810.091 394 788C394 765.909 411.909 748 434 748C456.091 748 474 765.909 474 788Z" fill="#383435"/>
<path d="M474 788C474 810.091 456.091 828 434 828C411.909 828 394 810.091 394 788C394 765.909 411.909 748 434 748C456.091 748 474 765.909 474 788Z" fill="url(#paint38_radial)"/>
<path d="M474 788C474 810.091 456.091 828 434 828C411.909 828 394 810.091 394 788C394 765.909 411.909 748 434 748C456.091 748 474 765.909 474 788Z" fill="url(#paint39_linear)"/>
<path d="M515 171C515 190.33 499.33 206 480 206C460.67 206 445 190.33 445 171C445 151.67 460.67 136 480 136C499.33 136 515 151.67 515 171Z" fill="#383435"/>
<path d="M515 171C515 190.33 499.33 206 480 206C460.67 206 445 190.33 445 171C445 151.67 460.67 136 480 136C499.33 136 515 151.67 515 171Z" fill="url(#paint40_radial)"/>
<path d="M515 171C515 190.33 499.33 206 480 206C460.67 206 445 190.33 445 171C445 151.67 460.67 136 480 136C499.33 136 515 151.67 515 171Z" fill="url(#paint41_linear)"/>
<path d="M553 757C553 787.376 528.376 812 498 812C467.624 812 443 787.376 443 757C443 726.624 467.624 702 498 702C528.376 702 553 726.624 553 757Z" fill="#383435"/>
<path d="M553 757C553 787.376 528.376 812 498 812C467.624 812 443 787.376 443 757C443 726.624 467.624 702 498 702C528.376 702 553 726.624 553 757Z" fill="url(#paint42_radial)"/>
<path d="M553 757C553 787.376 528.376 812 498 812C467.624 812 443 787.376 443 757C443 726.624 467.624 702 498 702C528.376 702 553 726.624 553 757Z" fill="url(#paint43_linear)"/>
<path d="M74 704C74 717.807 62.8071 729 49 729C35.1929 729 24 717.807 24 704C24 690.193 35.1929 679 49 679C62.8071 679 74 690.193 74 704Z" fill="#383435"/>
<path d="M74 704C74 717.807 62.8071 729 49 729C35.1929 729 24 717.807 24 704C24 690.193 35.1929 679 49 679C62.8071 679 74 690.193 74 704Z" fill="url(#paint44_radial)"/>
<path d="M74 704C74 717.807 62.8071 729 49 729C35.1929 729 24 717.807 24 704C24 690.193 35.1929 679 49 679C62.8071 679 74 690.193 74 704Z" fill="url(#paint45_linear)"/>
<path d="M160 781C160 789.284 153.284 796 145 796C136.716 796 130 789.284 130 781C130 772.716 136.716 766 145 766C153.284 766 160 772.716 160 781Z" fill="#383435"/>
<path d="M160 781C160 789.284 153.284 796 145 796C136.716 796 130 789.284 130 781C130 772.716 136.716 766 145 766C153.284 766 160 772.716 160 781Z" fill="url(#paint46_radial)"/>
<path d="M160 781C160 789.284 153.284 796 145 796C136.716 796 130 789.284 130 781C130 772.716 136.716 766 145 766C153.284 766 160 772.716 160 781Z" fill="url(#paint47_linear)"/>
<path d="M283 92C283 103.046 274.046 112 263 112C251.954 112 243 103.046 243 92C243 80.9543 251.954 72 263 72C274.046 72 283 80.9543 283 92Z" fill="#383435"/>
<path d="M283 92C283 103.046 274.046 112 263 112C251.954 112 243 103.046 243 92C243 80.9543 251.954 72 263 72C274.046 72 283 80.9543 283 92Z" fill="url(#paint48_radial)"/>
<path d="M283 92C283 103.046 274.046 112 263 112C251.954 112 243 103.046 243 92C243 80.9543 251.954 72 263 72C274.046 72 283 80.9543 283 92Z" fill="url(#paint49_linear)"/>
</g>
<defs>
<radialGradient id="paint0_radial" cx="0" cy="0" r="1" gradientUnits="userSpaceOnUse" gradientTransform="translate(257.533 93.3333) rotate(73.677) scale(19.4507)">
<stop stop-color="white"/>
<stop offset="1" stop-color="white" stop-opacity="0"/>
</radialGradient>
<linearGradient id="paint1_linear" x1="276.467" y1="75.8667" x2="248.467" y2="112" gradientUnits="userSpaceOnUse">
<stop/>
<stop offset="1" stop-color="white" stop-opacity="0"/>
</linearGradient>
<radialGradient id="paint2_radial" cx="0" cy="0" r="1" gradientUnits="userSpaceOnUse" gradientTransform="translate(257.533 93.3333) rotate(73.677) scale(19.4507)">
<stop stop-color="white"/>
<stop offset="1" stop-color="white" stop-opacity="0"/>
</radialGradient>
<linearGradient id="paint3_linear" x1="276.467" y1="75.8667" x2="248.467" y2="112" gradientUnits="userSpaceOnUse">
<stop/>
<stop offset="1" stop-color="white" stop-opacity="0"/>
</linearGradient>
<radialGradient id="paint4_radial" cx="0" cy="0" r="1" gradientUnits="userSpaceOnUse" gradientTransform="translate(257.533 93.3333) rotate(73.677) scale(19.4507)">
<stop stop-color="white"/>
<stop offset="1" stop-color="white" stop-opacity="0"/>
</radialGradient>
<linearGradient id="paint5_linear" x1="276.467" y1="75.8667" x2="248.467" y2="112" gradientUnits="userSpaceOnUse">
<stop/>
<stop offset="1" stop-color="white" stop-opacity="0"/>
</linearGradient>
<radialGradient id="paint6_radial" cx="0" cy="0" r="1" gradientUnits="userSpaceOnUse" gradientTransform="translate(257.533 93.3333) rotate(73.677) scale(19.4507)">
<stop stop-color="white"/>
<stop offset="1" stop-color="white" stop-opacity="0"/>
</radialGradient>
<linearGradient id="paint7_linear" x1="276.467" y1="75.8667" x2="248.467" y2="112" gradientUnits="userSpaceOnUse">
<stop/>
<stop offset="1" stop-color="white" stop-opacity="0"/>
</linearGradient>
<radialGradient id="paint8_radial" cx="0" cy="0" r="1" gradientUnits="userSpaceOnUse" gradientTransform="translate(257.533 93.3333) rotate(73.677) scale(19.4507)">
<stop stop-color="white"/>
<stop offset="1" stop-color="white" stop-opacity="0"/>
</radialGradient>
<linearGradient id="paint9_linear" x1="276.467" y1="75.8667" x2="248.467" y2="112" gradientUnits="userSpaceOnUse">
<stop/>
<stop offset="1" stop-color="white" stop-opacity="0"/>
</linearGradient>
<radialGradient id="paint10_radial" cx="0" cy="0" r="1" gradientUnits="userSpaceOnUse" gradientTransform="translate(257.533 93.3333) rotate(73.677) scale(19.4507)">
<stop stop-color="white"/>
<stop offset="1" stop-color="white" stop-opacity="0"/>
</radialGradient>
<linearGradient id="paint11_linear" x1="276.467" y1="75.8667" x2="248.467" y2="112" gradientUnits="userSpaceOnUse">
<stop/>
<stop offset="1" stop-color="white" stop-opacity="0"/>
</linearGradient>
<radialGradient id="paint12_radial" cx="0" cy="0" r="1" gradientUnits="userSpaceOnUse" gradientTransform="translate(257.533 93.3333) rotate(73.677) scale(19.4507)">
<stop stop-color="white"/>
<stop offset="1" stop-color="white" stop-opacity="0"/>
</radialGradient>
<linearGradient id="paint13_linear" x1="276.467" y1="75.8667" x2="248.467" y2="112" gradientUnits="userSpaceOnUse">
<stop/>
<stop offset="1" stop-color="white" stop-opacity="0"/>
</linearGradient>
<radialGradient id="paint14_radial" cx="0" cy="0" r="1" gradientUnits="userSpaceOnUse" gradientTransform="translate(257.533 93.3333) rotate(73.677) scale(19.4507)">
<stop stop-color="white"/>
<stop offset="1" stop-color="white" stop-opacity="0"/>
</radialGradient>
<linearGradient id="paint15_linear" x1="276.467" y1="75.8667" x2="248.467" y2="112" gradientUnits="userSpaceOnUse">
<stop/>
<stop offset="1" stop-color="white" stop-opacity="0"/>
</linearGradient>
<radialGradient id="paint16_radial" cx="0" cy="0" r="1" gradientUnits="userSpaceOnUse" gradientTransform="translate(257.533 93.3333) rotate(73.677) scale(19.4507)">
<stop stop-color="white"/>
<stop offset="1" stop-color="white" stop-opacity="0"/>
</radialGradient>
<linearGradient id="paint17_linear" x1="276.467" y1="75.8667" x2="248.467" y2="112" gradientUnits="userSpaceOnUse">
<stop/>
<stop offset="1" stop-color="white" stop-opacity="0"/>
</linearGradient>
<radialGradient id="paint18_radial" cx="0" cy="0" r="1" gradientUnits="userSpaceOnUse" gradientTransform="translate(257.533 93.3333) rotate(73.677) scale(19.4507)">
<stop stop-color="white"/>
<stop offset="1" stop-color="white" stop-opacity="0"/>
</radialGradient>
<linearGradient id="paint19_linear" x1="276.467" y1="75.8667" x2="248.467" y2="112" gradientUnits="userSpaceOnUse">
<stop/>
<stop offset="1" stop-color="white" stop-opacity="0"/>
</linearGradient>
<radialGradient id="paint20_radial" cx="0" cy="0" r="1" gradientUnits="userSpaceOnUse" gradientTransform="translate(257.533 93.3333) rotate(73.677) scale(19.4507)">
<stop stop-color="white"/>
<stop offset="1" stop-color="white" stop-opacity="0"/>
</radialGradient>
<linearGradient id="paint21_linear" x1="276.467" y1="75.8667" x2="248.467" y2="112" gradientUnits="userSpaceOnUse">
<stop/>
<stop offset="1" stop-color="white" stop-opacity="0"/>
</linearGradient>
<radialGradient id="paint22_radial" cx="0" cy="0" r="1" gradientUnits="userSpaceOnUse" gradientTransform="translate(257.533 93.3333) rotate(73.677) scale(19.4507)">
<stop stop-color="white"/>
<stop offset="1" stop-color="white" stop-opacity="0"/>
</radialGradient>
<linearGradient id="paint23_linear" x1="276.467" y1="75.8667" x2="248.467" y2="112" gradientUnits="userSpaceOnUse">
<stop/>
<stop offset="1" stop-color="white" stop-opacity="0"/>
</linearGradient>
<radialGradient id="paint24_radial" cx="0" cy="0" r="1" gradientUnits="userSpaceOnUse" gradientTransform="translate(257.533 93.3333) rotate(73.677) scale(19.4507)">
<stop stop-color="white"/>
<stop offset="1" stop-color="white" stop-opacity="0"/>
</radialGradient>
<linearGradient id="paint25_linear" x1="276.467" y1="75.8667" x2="248.467" y2="112" gradientUnits="userSpaceOnUse">
<stop/>
<stop offset="1" stop-color="white" stop-opacity="0"/>
</linearGradient>
<radialGradient id="paint26_radial" cx="0" cy="0" r="1" gradientUnits="userSpaceOnUse" gradientTransform="translate(257.533 93.3333) rotate(73.677) scale(19.4507)">
<stop stop-color="white"/>
<stop offset="1" stop-color="white" stop-opacity="0"/>
</radialGradient>
<linearGradient id="paint27_linear" x1="276.467" y1="75.8667" x2="248.467" y2="112" gradientUnits="userSpaceOnUse">
<stop/>
<stop offset="1" stop-color="white" stop-opacity="0"/>
</linearGradient>
<radialGradient id="paint28_radial" cx="0" cy="0" r="1" gradientUnits="userSpaceOnUse" gradientTransform="translate(257.533 93.3333) rotate(73.677) scale(19.4507)">
<stop stop-color="white"/>
<stop offset="1" stop-color="white" stop-opacity="0"/>
</radialGradient>
<linearGradient id="paint29_linear" x1="276.467" y1="75.8667" x2="248.467" y2="112" gradientUnits="userSpaceOnUse">
<stop/>
<stop offset="1" stop-color="white" stop-opacity="0"/>
</linearGradient>
<radialGradient id="paint30_radial" cx="0" cy="0" r="1" gradientUnits="userSpaceOnUse" gradientTransform="translate(257.533 93.3333) rotate(73.677) scale(19.4507)">
<stop stop-color="white"/>
<stop offset="1" stop-color="white" stop-opacity="0"/>
</radialGradient>
<linearGradient id="paint31_linear" x1="276.467" y1="75.8667" x2="248.467" y2="112" gradientUnits="userSpaceOnUse">
<stop/>
<stop offset="1" stop-color="white" stop-opacity="0"/>
</linearGradient>
<radialGradient id="paint32_radial" cx="0" cy="0" r="1" gradientUnits="userSpaceOnUse" gradientTransform="translate(257.533 93.3333) rotate(73.677) scale(19.4507)">
<stop stop-color="white"/>
<stop offset="1" stop-color="white" stop-opacity="0"/>
</radialGradient>
<linearGradient id="paint33_linear" x1="276.467" y1="75.8667" x2="248.467" y2="112" gradientUnits="userSpaceOnUse">
<stop/>
<stop offset="1" stop-color="white" stop-opacity="0"/>
</linearGradient>
<radialGradient id="paint34_radial" cx="0" cy="0" r="1" gradientUnits="userSpaceOnUse" gradientTransform="translate(257.533 93.3333) rotate(73.677) scale(19.4507)">
<stop stop-color="white"/>
<stop offset="1" stop-color="white" stop-opacity="0"/>
</radialGradient>
<linearGradient id="paint35_linear" x1="276.467" y1="75.8667" x2="248.467" y2="112" gradientUnits="userSpaceOnUse">
<stop/>
<stop offset="1" stop-color="white" stop-opacity="0"/>
</linearGradient>
<radialGradient id="paint36_radial" cx="0" cy="0" r="1" gradientUnits="userSpaceOnUse" gradientTransform="translate(257.533 93.3333) rotate(73.677) scale(19.4507)">
<stop stop-color="white"/>
<stop offset="1" stop-color="white" stop-opacity="0"/>
</radialGradient>
<linearGradient id="paint37_linear" x1="276.467" y1="75.8667" x2="248.467" y2="112" gradientUnits="userSpaceOnUse">
<stop/>
<stop offset="1" stop-color="white" stop-opacity="0"/>
</linearGradient>
<radialGradient id="paint38_radial" cx="0" cy="0" r="1" gradientUnits="userSpaceOnUse" gradientTransform="translate(257.533 93.3333) rotate(73.677) scale(19.4507)">
<stop stop-color="white"/>
<stop offset="1" stop-color="white" stop-opacity="0"/>
</radialGradient>
<linearGradient id="paint39_linear" x1="276.467" y1="75.8667" x2="248.467" y2="112" gradientUnits="userSpaceOnUse">
<stop/>
<stop offset="1" stop-color="white" stop-opacity="0"/>
</linearGradient>
<radialGradient id="paint40_radial" cx="0" cy="0" r="1" gradientUnits="userSpaceOnUse" gradientTransform="translate(257.533 93.3333) rotate(73.677) scale(19.4507)">
<stop stop-color="white"/>
<stop offset="1" stop-color="white" stop-opacity="0"/>
</radialGradient>
<linearGradient id="paint41_linear" x1="276.467" y1="75.8667" x2="248.467" y2="112" gradientUnits="userSpaceOnUse">
<stop/>
<stop offset="1" stop-color="white" stop-opacity="0"/>
</linearGradient>
<radialGradient id="paint42_radial" cx="0" cy="0" r="1" gradientUnits="userSpaceOnUse" gradientTransform="translate(257.533 93.3333) rotate(73.677) scale(19.4507)">
<stop stop-color="white"/>
<stop offset="1" stop-color="white" stop-opacity="0"/>
</radialGradient>
<linearGradient id="paint43_linear" x1="276.467" y1="75.8667" x2="248.467" y2="112" gradientUnits="userSpaceOnUse">
<stop/>
<stop offset="1" stop-color="white" stop-opacity="0"/>
</linearGradient>
<radialGradient id="paint44_radial" cx="0" cy="0" r="1" gradientUnits="userSpaceOnUse" gradientTransform="translate(257.533 93.3333) rotate(73.677) scale(19.4507)">
<stop stop-color="white"/>
<stop offset="1" stop-color="white" stop-opacity="0"/>
</radialGradient>
<linearGradient id="paint45_linear" x1="276.467" y1="75.8667" x2="248.467" y2="112" gradientUnits="userSpaceOnUse">
<stop/>
<stop offset="1" stop-color="white" stop-opacity="0"/>
</linearGradient>
<radialGradient id="paint46_radial" cx="0" cy="0" r="1" gradientUnits="userSpaceOnUse" gradientTransform="translate(257.533 93.3333) rotate(73.677) scale(19.4507)">
<stop stop-color="white"/>
<stop offset="1" stop-color="white" stop-opacity="0"/>
</radialGradient>
<linearGradient id="paint47_linear" x1="276.467" y1="75.8667" x2="248.467" y2="112" gradientUnits="userSpaceOnUse">
<stop/>
<stop offset="1" stop-color="white" stop-opacity="0"/>
</linearGradient>
<radialGradient id="paint48_radial" cx="0" cy="0" r="1" gradientUnits="userSpaceOnUse" gradientTransform="translate(257.533 93.3333) rotate(73.677) scale(19.4507)">
<stop stop-color="white"/>
<stop offset="1" stop-color="white" stop-opacity="0"/>
</radialGradient>
<linearGradient id="paint49_linear" x1="276.467" y1="75.8667" x2="248.467" y2="112" gradientUnits="userSpaceOnUse">
<stop/>
<stop offset="1" stop-color="white" stop-opacity="0"/>
</linearGradient>
</defs>
</svg>
