<svg width="70" height="70" viewBox="0 0 70 70" fill="none" xmlns="http://www.w3.org/2000/svg">
<path d="M32.0834 5.83337C46.5734 5.83337 58.3334 17.5934 58.3334 32.0834C58.3334 46.5734 46.5734 58.3334 32.0834 58.3334C17.5934 58.3334 5.83337 46.5734 5.83337 32.0834C5.83337 17.5934 17.5934 5.83337 32.0834 5.83337ZM32.0834 52.5C43.3621 52.5 52.5 43.3621 52.5 32.0834C52.5 20.8017 43.3621 11.6667 32.0834 11.6667C20.8017 11.6667 11.6667 20.8017 11.6667 32.0834C11.6667 43.3621 20.8017 52.5 32.0834 52.5ZM56.8313 52.7071L65.0825 60.9555L60.9555 65.0825L52.7071 56.8313L56.8313 52.7071Z" fill="#7A7A7A"/>
</svg>
