<svg width="70" height="70" viewBox="0 0 70 70" fill="none" xmlns="http://www.w3.org/2000/svg">
<path d="M9.74178 49.5829C8.50882 47.4508 7.55039 45.1713 6.88928 42.7988C8.3281 42.067 9.53643 40.9514 10.3806 39.5755C11.2248 38.1997 11.6719 36.6171 11.6725 35.0028C11.6731 33.3886 11.2272 31.8057 10.384 30.4292C9.54088 29.0527 8.33338 27.9362 6.89512 27.2034C8.21355 22.436 10.7239 18.0828 14.1897 14.5538C15.5433 15.4338 17.114 15.9222 18.728 15.9648C20.3419 16.0074 21.9362 15.6027 23.3344 14.7954C24.7326 13.988 25.8801 12.8096 26.6501 11.3905C27.42 9.97135 27.7823 8.36687 27.6968 6.75461C32.4863 5.51684 37.512 5.51884 42.3005 6.76044C42.2158 8.37267 42.5788 9.97691 43.3493 11.3956C44.1198 12.8144 45.2678 13.9922 46.6663 14.7989C48.0647 15.6057 49.6591 16.0097 51.273 15.9665C52.8869 15.9232 54.4573 15.4343 55.8105 14.5538C57.535 16.3121 59.0295 18.282 60.2584 20.4163C61.5214 22.6009 62.4664 24.8788 63.111 27.2004C61.6721 27.9322 60.4638 29.0478 59.6196 30.4237C58.7754 31.7995 58.3283 33.3821 58.3277 34.9964C58.3271 36.6106 58.773 38.1935 59.6162 39.57C60.4593 40.9465 61.6668 42.063 63.1051 42.7959C61.7867 47.5632 59.2763 51.9164 55.8105 55.4454C54.4569 54.5654 52.8862 54.077 51.2723 54.0344C49.6583 53.9918 48.064 54.3965 46.6658 55.2038C45.2676 56.0112 44.1201 57.1896 43.3502 58.6087C42.5802 60.0279 42.218 61.6323 42.3034 63.2446C37.514 64.4824 32.4882 64.4804 27.6997 63.2388C27.7844 61.6265 27.4214 60.0223 26.6509 58.6036C25.8804 57.1849 24.7324 56.007 23.3339 55.2003C21.9355 54.3936 20.3411 53.9895 18.7272 54.0327C17.1134 54.076 15.5429 54.5649 14.1897 55.4454C12.4659 53.6865 10.9714 51.7167 9.74178 49.5829ZM26.2501 50.1546C29.3582 51.9473 31.6951 54.8242 32.8126 58.2338C34.268 58.3708 35.7293 58.3738 37.1847 58.2367C38.303 54.8267 40.6409 51.9496 43.7501 50.1575C46.857 48.3599 50.5183 47.7731 54.0314 48.5096C54.8772 47.3196 55.6064 46.0508 56.213 44.7238C53.8197 42.0505 52.4975 38.5877 52.5001 34.9996C52.5001 31.3246 53.8709 27.8917 56.213 25.2754C55.6021 23.9488 54.8698 22.6815 54.0255 21.4896C50.5147 22.2255 46.8558 21.6397 43.7501 19.8446C40.642 18.0519 38.3052 15.175 37.1876 11.7654C35.7322 11.6284 34.2709 11.6254 32.8155 11.7625C31.6973 15.1725 29.3593 18.0496 26.2501 19.8417C23.1432 21.6393 19.4819 22.2261 15.9689 21.4896C15.1247 22.6804 14.3942 23.948 13.7872 25.2754C16.1805 27.9487 17.5027 31.4115 17.5001 34.9996C17.5035 38.5879 16.1812 42.0509 13.7872 44.7238C14.3982 46.0504 15.1304 47.3178 15.9747 48.5096C19.4855 47.7737 23.1445 48.3595 26.2501 50.1546ZM35.0001 43.7496C32.6795 43.7496 30.4539 42.8277 28.8129 41.1868C27.172 39.5458 26.2501 37.3202 26.2501 34.9996C26.2501 32.679 27.172 30.4534 28.8129 28.8124C30.4539 27.1715 32.6795 26.2496 35.0001 26.2496C37.3208 26.2496 39.5464 27.1715 41.1873 28.8124C42.8282 30.4534 43.7501 32.679 43.7501 34.9996C43.7501 37.3202 42.8282 39.5458 41.1873 41.1868C39.5464 42.8277 37.3208 43.7496 35.0001 43.7496ZM35.0001 37.9163C35.7737 37.9163 36.5155 37.609 37.0625 37.062C37.6095 36.515 37.9168 35.7732 37.9168 34.9996C37.9168 34.2261 37.6095 33.4842 37.0625 32.9372C36.5155 32.3902 35.7737 32.0829 35.0001 32.0829C34.2266 32.0829 33.4847 32.3902 32.9377 32.9372C32.3907 33.4842 32.0834 34.2261 32.0834 34.9996C32.0834 35.7732 32.3907 36.515 32.9377 37.062C33.4847 37.609 34.2266 37.9163 35.0001 37.9163Z" fill="#7A7A7A"/>
</svg>
