<svg width="70" height="70" viewBox="0 0 70 70" fill="none" xmlns="http://www.w3.org/2000/svg">
<path d="M35 58.3332C41.1884 58.3332 47.1233 55.8749 51.4992 51.4991C55.875 47.1232 58.3334 41.1883 58.3334 34.9999C58.3334 28.8115 55.875 22.8766 51.4992 18.5008C47.1233 14.1249 41.1884 11.6666 35 11.6666C28.8117 11.6666 22.8767 14.1249 18.5009 18.5008C14.125 22.8766 11.6667 28.8115 11.6667 34.9999C11.6667 41.1883 14.125 47.1232 18.5009 51.4991C22.8767 55.8749 28.8117 58.3332 35 58.3332ZM35 64.1666C18.8913 64.1666 5.83337 51.1087 5.83337 34.9999C5.83337 18.8912 18.8913 5.83325 35 5.83325C51.1088 5.83325 64.1667 18.8912 64.1667 34.9999C64.1667 51.1087 51.1088 64.1666 35 64.1666Z" fill="#7A7A7A"/>
<path d="M49.5834 26.0954C48.5101 26.562 47.358 26.8829 46.1476 27.0229C47.3842 26.2937 48.3292 25.1387 48.7784 23.7649C47.6 24.4517 46.3142 24.9349 44.9751 25.1941C44.4118 24.6037 43.7342 24.1342 42.9835 23.8143C42.2328 23.4944 41.4248 23.3307 40.6088 23.3333C37.3042 23.3333 34.6267 25.9729 34.6267 29.2249C34.6267 29.6858 34.6792 30.1349 34.7813 30.5666C32.411 30.454 30.0902 29.8486 27.967 28.789C25.8437 27.7294 23.9646 26.2388 22.4497 24.4124C21.9175 25.3081 21.6374 26.331 21.6388 27.3729C21.6388 29.4145 22.6976 31.2229 24.3017 32.2758C23.3522 32.246 22.423 31.9932 21.5892 31.5379V31.6108C21.5983 32.98 22.0816 34.3038 22.9569 35.3568C23.8323 36.4098 25.0455 37.1268 26.3901 37.3858C25.5074 37.6192 24.5838 37.6531 23.6863 37.4849C24.0775 38.6629 24.8258 39.6898 25.8272 40.4231C26.8287 41.1564 28.0336 41.5597 29.2747 41.577C27.1454 43.2178 24.5311 44.1043 21.843 44.097C21.3617 44.097 20.8863 44.0679 20.4167 44.0154C23.1598 45.7516 26.3404 46.6712 29.5867 46.6666C40.5942 46.6666 46.6113 37.6891 46.6113 29.9016L46.5909 29.1374C47.7643 28.3128 48.7782 27.2821 49.5834 26.0954Z" fill="#7A7A7A"/>
</svg>
