<svg width="70" height="70" viewBox="0 0 70 70" fill="none" xmlns="http://www.w3.org/2000/svg">
<path d="M46.4293 41.073C45.577 40.1507 44.6196 39.3314 43.5768 38.6317C47.7818 35.3809 50.7289 30.7722 51.9156 25.5913C52.0047 25.2164 52.0187 24.8275 51.9566 24.4472C51.8946 24.0668 51.7578 23.7026 51.5542 23.3754C51.3505 23.0482 51.0841 22.7647 50.7702 22.5411C50.4563 22.3175 50.1013 22.1583 49.7255 22.0728C49.3498 21.9872 48.9608 21.977 48.5811 22.0426C48.2013 22.1083 47.8384 22.2486 47.5132 22.4553C47.188 22.6621 46.907 22.9312 46.6864 23.2472C46.4658 23.5632 46.31 23.9198 46.2281 24.2963C45.6761 26.7202 44.602 28.9945 43.0807 30.9606C41.5593 32.9267 39.6275 34.5373 37.4197 35.68V24.9496C37.4013 24.7354 37.3583 24.524 37.2914 24.3196C37.2716 24.1508 37.2375 23.9839 37.1893 23.8209C37.065 23.5545 36.9007 23.3086 36.7022 23.0917C36.6497 23.0334 36.6235 22.9517 36.5681 22.8934C36.3545 22.6962 36.1126 22.532 35.8506 22.4063C35.7747 22.3655 35.7193 22.2984 35.6406 22.2663C35.4176 22.1916 35.1865 22.1436 34.9522 22.1234C34.8072 22.0811 34.6589 22.0509 34.5089 22.033L32.6014 22.0271H32.5926C31.9093 22.0223 31.2462 22.2587 30.7201 22.6948C30.194 23.1309 29.8386 23.7387 29.7166 24.411C29.5947 25.0834 29.7138 25.7773 30.0532 26.3704C30.3926 26.9635 30.9303 27.4178 31.5718 27.6534V41.9159C26.9498 37.1183 23.889 31.0335 22.7926 24.4625C22.6635 23.6998 22.2366 23.0197 21.6059 22.5717C20.9752 22.1237 20.1924 21.9446 19.4297 22.0738C18.667 22.203 17.9868 22.6299 17.5389 23.2605C17.0909 23.8912 16.9118 24.674 17.041 25.4367C18.7453 35.5947 24.4096 44.6617 32.791 50.6484C32.9107 50.7196 33.0355 50.782 33.1643 50.835C33.2658 50.8942 33.371 50.9469 33.4793 50.9925C33.8043 51.1226 34.1502 51.1928 34.5001 51.1996C34.9294 51.1943 35.3521 51.0926 35.7368 50.9021C35.766 50.8875 35.7981 50.8963 35.8272 50.8817C36.085 50.7467 36.321 50.5737 36.5272 50.3684C36.571 50.3275 36.5972 50.2809 36.6381 50.2371C36.8263 50.0306 36.9835 49.7977 37.1047 49.5459C37.1449 49.4631 37.1809 49.3784 37.2126 49.2921C37.3407 48.9707 37.4099 48.6289 37.4168 48.283V42.0821C39.2253 42.6122 40.855 43.6257 42.1301 45.0134L46.9339 50.2546C47.4568 50.8247 48.1848 51.1638 48.9577 51.1971C49.7306 51.2305 50.485 50.9555 51.0551 50.4325C51.6252 49.9096 51.9643 49.1817 51.9976 48.4088C52.031 47.6359 51.756 46.8814 51.2331 46.3113L46.4293 41.073Z" fill="#7A7A7A"/>
<path d="M35.1667 58.5C41.3551 58.5 47.29 56.0417 51.6658 51.6658C56.0417 47.29 58.5 41.3551 58.5 35.1667C58.5 28.9783 56.0417 23.0434 51.6658 18.6675C47.29 14.2917 41.3551 11.8333 35.1667 11.8333C28.9783 11.8333 23.0434 14.2917 18.6675 18.6675C14.2917 23.0434 11.8333 28.9783 11.8333 35.1667C11.8333 41.3551 14.2917 47.29 18.6675 51.6658C23.0434 56.0417 28.9783 58.5 35.1667 58.5ZM35.1667 64.3333C19.0579 64.3333 6 51.2754 6 35.1667C6 19.0579 19.0579 6 35.1667 6C51.2754 6 64.3333 19.0579 64.3333 35.1667C64.3333 51.2754 51.2754 64.3333 35.1667 64.3333Z" fill="#7A7A7A"/>
</svg>
