<svg width="70" height="70" viewBox="0 0 70 70" fill="none" xmlns="http://www.w3.org/2000/svg">
<path d="M21.1547 53.9409L23.2663 55.1746C26.8274 57.2515 30.8776 58.3418 35.0001 58.3334C39.615 58.3334 44.1262 56.9649 47.9634 54.401C51.8005 51.8371 54.7912 48.1929 56.5573 43.9293C58.3233 39.6657 58.7854 34.9742 57.8851 30.4479C56.9847 25.9217 54.7625 21.7641 51.4992 18.5009C48.236 15.2377 44.0784 13.0154 39.5522 12.1151C35.026 11.2147 30.3344 11.6768 26.0708 13.4429C21.8072 15.2089 18.163 18.1996 15.5991 22.0367C13.0352 25.8739 11.6667 30.3851 11.6667 35C11.6582 39.1238 12.7496 43.1752 14.8284 46.7367L16.0592 48.8484L14.1547 55.8513L21.1547 53.9409ZM5.84508 64.1667L9.78841 49.6767C7.19007 45.2225 5.82494 40.1567 5.83341 35C5.83341 18.8913 18.8913 5.83337 35.0001 5.83337C51.1088 5.83337 64.1667 18.8913 64.1667 35C64.1667 51.1088 51.1088 64.1667 35.0001 64.1667C29.8457 64.175 24.782 62.811 20.3292 60.2146L5.84508 64.1667ZM24.4738 21.315C24.8647 21.2859 25.2584 21.2859 25.6492 21.3034C25.8067 21.315 25.9642 21.3325 26.1217 21.35C26.5855 21.4025 27.0959 21.6855 27.268 22.0763C28.1372 24.048 28.983 26.0342 29.7997 28.0263C29.9805 28.4696 29.8726 29.0384 29.5284 29.5925C29.2917 29.9673 29.0357 30.3294 28.7613 30.6775C28.4317 31.1005 27.723 31.8763 27.723 31.8763C27.723 31.8763 27.4342 32.2205 27.5451 32.6492C27.5859 32.8125 27.7201 33.0488 27.8426 33.2471L28.0147 33.5242C28.7613 34.7696 29.7647 36.0325 30.9897 37.2225C31.3397 37.5609 31.6809 37.908 32.0484 38.2317C33.4134 39.4363 34.9592 40.4192 36.6276 41.1484L36.6422 41.1542C36.8901 41.2621 37.0155 41.3205 37.3772 41.475C37.558 41.5509 37.7447 41.618 37.9342 41.6675C38.1302 41.7174 38.3365 41.708 38.527 41.6405C38.7176 41.573 38.8838 41.4505 39.0047 41.2884C41.1163 38.7305 41.3088 38.5642 41.3263 38.5642V38.57C41.473 38.4332 41.6473 38.3294 41.8375 38.2655C42.0276 38.2016 42.2293 38.1791 42.4288 38.1996C42.6038 38.2113 42.7817 38.2434 42.9451 38.3163C44.4938 39.025 47.0284 40.1305 47.0284 40.1305L48.7259 40.8917C49.0117 41.0288 49.2713 41.3525 49.2801 41.6646C49.2917 41.86 49.3092 42.175 49.2422 42.7525C49.1488 43.508 48.9213 44.415 48.6938 44.8905C48.538 45.2149 48.3312 45.5123 48.0813 45.7713C47.787 46.0803 47.4648 46.3615 47.1188 46.6113C46.9991 46.7013 46.8776 46.7888 46.7542 46.8738C46.3915 47.1039 46.0187 47.318 45.6372 47.5155C44.8862 47.9143 44.0568 48.1433 43.2076 48.1863C42.668 48.2155 42.1284 48.2563 41.5859 48.2271C41.5626 48.2271 39.9292 47.9734 39.9292 47.9734C35.7825 46.8827 31.9475 44.8393 28.7292 42.0059C28.0701 41.4255 27.4605 40.8013 26.8363 40.18C24.2405 37.5988 22.2805 34.8134 21.0905 32.1825C20.4814 30.8913 20.1524 29.4858 20.1251 28.0584C20.1131 26.2875 20.6919 24.5632 21.7701 23.1584C21.983 22.8842 22.1842 22.5984 22.5313 22.2688C22.9017 21.9188 23.1351 21.7321 23.3888 21.6038C23.7262 21.4347 24.0943 21.3355 24.4709 21.3121L24.4738 21.315Z" fill="#7A7A7A"/>
</svg>
